<svg width="2000" height="1300" viewBox="0 0 2000 1300" fill="none" xmlns="http://www.w3.org/2000/svg">
<g clip-path="url(#clip0)">
<path fill-rule="evenodd" clip-rule="evenodd" d="M1998.38 372.257C2008.66 334.432 1968.98 296.554 1909.74 287.651L-0.292559 0.617676L-4.84326 1300.59L1725.83 1002.08C1784.56 991.947 1840.51 953.071 1850.79 915.246L1998.38 372.257Z" fill="url(#paint0_linear)"/>
<path opacity="0.0625" fill-rule="evenodd" clip-rule="evenodd" d="M1455.06 848.796C1407.18 876.218 1390.84 934.386 1418.56 978.722L1619.74 1300.43C1619.74 1300.43 2383.48 910.084 2235.12 876.292C2014.97 826.151 1742.27 764.174 1742.27 764.174C1687.13 751.641 1603.62 763.71 1555.74 791.133L1455.06 848.796Z" fill="url(#paint1_linear)"/>
<path opacity="0.0625" fill-rule="evenodd" clip-rule="evenodd" d="M389.375 488.292C390.857 441.123 357.917 385.638 315.781 364.351L-173.657 117.093C-173.657 117.093 -176.009 1267.71 -173.657 1266.4C-171.306 1265.09 317.274 823.456 317.274 823.456C352.273 791.825 381.847 727.948 383.328 680.776L389.375 488.292Z" fill="url(#paint2_linear)"/>
</g>
<defs>
<linearGradient id="paint0_linear" x1="1816.29" y1="248.14" x2="749.47" y2="1776.05" gradientUnits="userSpaceOnUse">
<stop stop-color="#1E42A9"/>
<stop offset="1" stop-color="#141E68"/>
</linearGradient>
<linearGradient id="paint1_linear" x1="1587.27" y1="750.273" x2="1619.88" y2="992.328" gradientUnits="userSpaceOnUse">
<stop stop-color="#E7EAF6"/>
<stop offset="1" stop-color="white" stop-opacity="0"/>
</linearGradient>
<linearGradient id="paint2_linear" x1="151.296" y1="675.219" x2="36.7199" y2="443.401" gradientUnits="userSpaceOnUse">
<stop stop-color="#E7EAF6"/>
<stop offset="1" stop-color="white" stop-opacity="0"/>
</linearGradient>
<clipPath id="clip0">
<rect width="2000" height="1300" fill="white" transform="matrix(-1 0 0 1 2000 0)"/>
</clipPath>
</defs>
</svg>
