<?xml version="1.0" encoding="utf-8"?>
<!-- Generator: Adobe Illustrator 22.0.0, SVG Export Plug-In . SVG Version: 6.00 Build 0)  -->
<svg version="1.1" id="OBJECTS" xmlns="http://www.w3.org/2000/svg" xmlns:xlink="http://www.w3.org/1999/xlink" x="0px" y="0px"
	 viewBox="0 0 261.9 187.5" style="enable-background:new 0 0 261.9 187.5;" xml:space="preserve">
<style type="text/css">
	.st0{fill:#EAEBFB;}
	.st1{clip-path:url(#SVGID_2_);fill:#E1E2F5;}
	.st2{fill:#E9D18F;}
	.st3{fill:#F2CCD1;}
	.st4{fill:url(#SVGID_3_);}
	.st5{fill:url(#SVGID_4_);}
	.st6{fill:#FFFFFF;}
	.st7{fill:#ECEDFD;}
	.st8{fill:#D88E9D;}
	.st9{fill:#C86C84;}
	.st10{fill:none;stroke:#1D2738;stroke-width:0.4318;stroke-linecap:round;stroke-linejoin:round;stroke-miterlimit:10;}
	.st11{fill:#C9CDEA;}
	.st12{fill:#7478D1;}
	.st13{fill:none;stroke:#EAEBFB;stroke-width:0.9305;stroke-linecap:round;stroke-linejoin:round;stroke-miterlimit:10;}
	.st14{fill:url(#SVGID_5_);}
	.st15{fill:#BAC0DF;}
	.st16{fill:#DBDFFD;}
	.st17{fill:#ADB3D5;}
	.st18{fill:#8B94C8;}
	.st19{opacity:0.23;fill:#C8C8C8;}
	.st20{fill:url(#SVGID_6_);}
	.st21{fill:#8992C6;}
	.st22{fill:none;stroke:#FFFFFF;stroke-width:2.2127;stroke-linecap:round;stroke-linejoin:round;stroke-miterlimit:10;}
	.st23{fill:#95B9FC;}
	.st24{fill:#E0E4ED;}
	.st25{fill:#524F62;}
	.st26{opacity:0.44;fill:#CACACA;}
	.st27{fill:#535975;}
	.st28{fill:url(#SVGID_7_);}
	.st29{fill:url(#SVGID_8_);}
	.st30{fill:#B3B5B7;}
	.st31{fill:url(#SVGID_9_);}
	.st32{fill:url(#SVGID_10_);}
	.st33{fill:url(#SVGID_11_);}
	.st34{fill:#8486E3;}
	.st35{opacity:0.44;fill:#C8C8C8;}
	.st36{fill:url(#SVGID_12_);}
	.st37{fill:url(#SVGID_13_);}
	.st38{fill:none;stroke:#FFCDD2;stroke-width:4.0246;stroke-linejoin:round;stroke-miterlimit:10;}
	.st39{fill:#282C3C;}
</style>
<g>
	<g>
		<path class="st0" d="M238.3,148.7c32.6-29.6,27.8-77.3,5.4-89c-22.4-11.7-47.2-6.1-55.4,10.4c-8.3,16.5-26.5,22.3-26.5,22.3
			S140,103.3,108.9,93c-31.1-10.2-50.9-5.8-63.4,9.5c-10.1,12.4-15,37.1,4.7,54.2h177.8C231.8,154.3,235.2,151.6,238.3,148.7z"/>
	</g>
	<g>
		<defs>
			<path id="SVGID_1_" d="M238.3,148.7c32.6-29.6,27.8-77.3,5.4-89c-22.4-11.7-47.2-6.1-55.4,10.4c-8.3,16.5-26.5,22.3-26.5,22.3
				S140,103.3,108.9,93c-31.1-10.2-50.9-5.8-63.4,9.5c-10.1,12.4-15,37.1,4.7,54.2h177.8C231.8,154.3,235.2,151.6,238.3,148.7z"/>
		</defs>
		<clipPath id="SVGID_2_">
			<use xlink:href="#SVGID_1_"  style="overflow:visible;"/>
		</clipPath>
		<path class="st1" d="M147.2,57.4c0,0,77.3,27.6,42.7,56.9c-38.6,32.6-5.7,43.8,16.1,50.8c24.1,7.7-178.3-5.5-178.3-5.5L31,90.9
			l21-25.1l64.2-5L147.2,57.4z"/>
	</g>
</g>
<path class="st2" d="M149.2,38.1c0,0-5,1.3-4,6.3l1.4,3.6l26.1-0.5l-5-9.2c-1.5-2.7-4.4-4.2-7.4-3.8l-7.3,0.9L149.2,38.1z"/>
<path class="st3" d="M155.5,38.6L155.5,38.6c-0.9,0.5-2,0.2-2.5-0.7l-3-5.5l3.3-1.8l3,5.4C156.8,37,156.4,38.1,155.5,38.6z"/>
<path class="st3" d="M152,37.9L152,37.9c-2.2,1.2-5,0.4-6.2-1.8l-2.8-5l8-4.4l2.8,5C155,33.9,154.2,36.7,152,37.9z"/>
<linearGradient id="SVGID_3_" gradientUnits="userSpaceOnUse" x1="147.6986" y1="28.6934" x2="153.3564" y2="28.6934">
	<stop  offset="0" style="stop-color:#2E353A"/>
	<stop  offset="1" style="stop-color:#000006"/>
</linearGradient>
<path class="st4" d="M152.4,31.4c0,0-1.5,0.1-1.9-1.6c-0.4-1.7-2.7-1.3-2.7-1.3l2.2-2.3c0,0,3.4-1.3,3.5,3.4L152.4,31.4z"/>
<linearGradient id="SVGID_4_" gradientUnits="userSpaceOnUse" x1="140.6609" y1="28.7692" x2="150.4505" y2="28.7692">
	<stop  offset="0" style="stop-color:#2E353A"/>
	<stop  offset="1" style="stop-color:#000006"/>
</linearGradient>
<path class="st5" d="M150.3,28.6l-6.1,3.4c-0.8,0.4-1.8,0.4-2.6-0.2c-0.9-0.7-1.3-1.6-0.6-3.4c1-2.7,2-0.7,2-0.7s6.4-5.3,7.5-0.3
	L150.3,28.6z"/>
<circle class="st3" cx="153.3" cy="30.5" r="1.4"/>
<path class="st6" d="M147.8,36.5l3.2-1.8c0,0,0.6,1.3-1.2,2.2C148.4,37.6,147.8,36.5,147.8,36.5z"/>
<path class="st7" d="M63.7,14c0,0,2.3-2.7,3.8-3.9C70,7.9,73,4,82.5,6.9c0.7,0.2,1.4,0.5,2.2,0.8C85.4,8,88,8,90.7,5.9
	c4.2-3.3,5.9-5.9,11.6-5.9c6.7-0.1,7.8,8.3,13,10.4c3.3,1.4,12.1,2.7,13.9,3.3L63.7,14z"/>
<path class="st8" d="M244.1,142.9c0.5,0.4,5.5-7.7,7.1-18.2c0,0,0.8-5.2-4.3-2.8c0,0,6.2-22.5-7.5-21.4c-2.4,0.2-3.7,0.6-5.1,2
	c-1.9,1.9-3.1,5.1-1.2,9.8c3.9,9.5,7.5,13.3,5.4,18.1C236.4,135.4,237,136.9,244.1,142.9z"/>
<path class="st9" d="M242,157.6c-0.3-0.1-0.4-0.3-0.4-0.6c3.9-15.1,0.6-41,0.1-42.2c-0.2-0.2-0.1-0.5,0.2-0.7
	c0.2-0.1,0.5-0.1,0.7,0.2c0.9,1.3,3.8,28.3,0,42.9C242.6,157.6,242.3,157.7,242,157.6z"/>
<line class="st10" x1="0.2" y1="157" x2="261.7" y2="157"/>
<path class="st11" d="M150.4,179.9h-11.7c-0.3,0-0.5-0.2-0.5-0.5v-12.3c0-0.3,0.3-0.6,0.6-0.6h11.5c0.3,0,0.6,0.3,0.6,0.6v12.3
	C150.8,179.7,150.6,179.9,150.4,179.9z"/>
<path class="st12" d="M147.4,177.1h3.4v-7.4h-3.4c-2,0-3.6,1.6-3.6,3.6v0.3C143.8,175.4,145.4,177.1,147.4,177.1z"/>
<path class="st12" d="M138.2,177.5c-0.1,0-0.1,0-0.2-0.1c-1.1-0.8-1.7-1.8-1.7-2.9c0-3,3.8-5.8,3.9-5.9c0.1-0.1,0.3-0.1,0.4,0.1
	c0.1,0.1,0.1,0.3-0.1,0.4c0,0-3.7,2.8-3.7,5.5c0,0.9,0.5,1.8,1.4,2.5c0.1,0.1,0.2,0.3,0.1,0.4C138.4,177.5,138.3,177.5,138.2,177.5z
	"/>
<path class="st13" d="M176.4,21.7c0,0,1.2-1.4,1.9-2c1.3-1.1,2.8-3.1,7.6-1.6c0.4,0.1,0.7,0.3,1.1,0.4c0.4,0.2,1.7,0.2,3.1-0.9
	c2.1-1.7,3-3,5.9-3c3.4,0,3.9,4.2,6.6,5.3c1.7,0.7,6.1,1.4,7,1.7L176.4,21.7z"/>
<g>
	<linearGradient id="SVGID_5_" gradientUnits="userSpaceOnUse" x1="27.6911" y1="42.9934" x2="58.4279" y2="42.9934">
		<stop  offset="0" style="stop-color:#BBCEF8"/>
		<stop  offset="1" style="stop-color:#A5BEF7"/>
	</linearGradient>
	<path class="st14" d="M55.8,49.3c1.6-2,2.6-4.5,2.6-7.3c0-6.3-5.1-11.4-11.4-11.4h-8c-6.3,0-11.4,5.1-11.4,11.4
		c0,6.3,5.1,11.4,11.4,11.4h8c1.8,0,3.5-0.4,5.1-1.2l5.7,3.1L55.8,49.3z"/>
</g>
<path class="st6" d="M48.9,40.3h-1.2c-0.1-0.3-0.2-0.7-0.4-1l0.9-0.9c0.2-0.2,0.2-0.6,0-0.9l-1-1c-0.2-0.2-0.6-0.2-0.9,0l-0.9,0.9
	c-0.3-0.2-0.6-0.3-1-0.4v-1.2c0-0.3-0.3-0.6-0.6-0.6h-1.5c-0.3,0-0.6,0.3-0.6,0.6V37c-0.3,0.1-0.7,0.2-1,0.4l-0.9-0.9
	c-0.2-0.2-0.6-0.2-0.9,0l-1,1c-0.2,0.2-0.2,0.6,0,0.9l0.9,0.9c-0.2,0.3-0.3,0.6-0.4,1h-1.2c-0.3,0-0.6,0.3-0.6,0.6v1.5
	c0,0.3,0.3,0.6,0.6,0.6h1.2c0.1,0.3,0.2,0.7,0.4,1l-0.9,0.9c-0.2,0.2-0.2,0.6,0,0.9l1,1c0.2,0.2,0.6,0.2,0.9,0l0.9-0.9
	c0.3,0.2,0.6,0.3,1,0.4v1.2c0,0.3,0.3,0.6,0.6,0.6h1.5c0.3,0,0.6-0.3,0.6-0.6v-1.2c0.3-0.1,0.7-0.2,1-0.4l0.9,0.9
	c0.2,0.2,0.6,0.2,0.9,0l1-1c0.2-0.2,0.2-0.6,0-0.9L47.3,44c0.2-0.3,0.3-0.6,0.4-1h1.2c0.3,0,0.6-0.3,0.6-0.6v-1.5
	C49.6,40.6,49.3,40.3,48.9,40.3z M43.1,44.3c-1.4,0-2.6-1.2-2.6-2.6s1.2-2.6,2.6-2.6c1.4,0,2.6,1.2,2.6,2.6S44.5,44.3,43.1,44.3z"/>
<g>
	<rect x="123.2" y="136.6" class="st11" width="23.4" height="14.7"/>
	<path class="st15" d="M151.1,151.3h-34.4c-3.1,0-5.6,2.5-5.6,5.6l0,0h45.5l0,0C156.7,153.8,154.2,151.3,151.1,151.3z"/>
	<path class="st16" d="M194.3,137.6H78.7c-4.7,0-8.6-3.8-8.6-8.6V53.2c0-4.7,3.8-8.6,8.6-8.6h115.6c4.7,0,8.6,3.8,8.6,8.6V129
		C202.8,133.7,199,137.6,194.3,137.6z"/>
	<path class="st11" d="M189.4,137.6H73.8c-4.7,0-8.6-3.8-8.6-8.6V53.2c0-4.7,3.8-8.6,8.6-8.6h115.6c4.7,0,8.6,3.8,8.6,8.6V129
		C198,133.7,194.1,137.6,189.4,137.6z"/>
	<rect x="74.7" y="53.5" class="st6" width="114.2" height="72.3"/>
	<rect x="74.7" y="53.5" class="st17" width="1.4" height="72.3"/>
	<path class="st18" d="M133.6,135.4c-2.1,0-3.9-1.7-3.9-3.9c0-2.1,1.7-3.9,3.9-3.9c2.1,0,3.9,1.7,3.9,3.9
		C137.5,133.6,135.7,135.4,133.6,135.4z M133.6,128.3c-1.8,0-3.2,1.4-3.2,3.2c0,1.8,1.4,3.2,3.2,3.2c1.8,0,3.2-1.4,3.2-3.2
		C136.8,129.7,135.4,128.3,133.6,128.3z"/>
</g>
<polygon class="st19" points="123.2,137.6 146.6,151.3 146.6,137.6 "/>
<path class="st7" d="M129.9,78.9H83.8c-0.9,0-1.7-0.8-1.7-1.7V63.3c0-0.9,0.8-1.7,1.7-1.7h46.1c0.9,0,1.7,0.8,1.7,1.7v13.9
	C131.6,78.1,130.9,78.9,129.9,78.9z"/>
<path class="st7" d="M115.6,87.6H83.5c-0.8,0-1.4-0.6-1.4-1.4l0,0c0-0.8,0.6-1.4,1.4-1.4h32.2c0.8,0,1.4,0.6,1.4,1.4l0,0
	C117,87,116.4,87.6,115.6,87.6z"/>
<path class="st7" d="M104.6,93.8H83.5c-0.8,0-1.4-0.6-1.4-1.4l0,0c0-0.8,0.6-1.4,1.4-1.4h21.2c0.8,0,1.4,0.6,1.4,1.4l0,0
	C106,93.2,105.4,93.8,104.6,93.8z"/>
<path class="st7" d="M104.6,100.4H83.5c-0.8,0-1.4-0.6-1.4-1.4l0,0c0-0.8,0.6-1.4,1.4-1.4h21.2c0.8,0,1.4,0.6,1.4,1.4l0,0
	C106,99.8,105.4,100.4,104.6,100.4z"/>
<path class="st7" d="M180,117.5h-39.5c-1.1,0-2-0.9-2-2V63.6c0-1.1,0.9-2,2-2H180c1.1,0,2,0.9,2,2v51.8
	C182.1,116.6,181.2,117.5,180,117.5z"/>
<linearGradient id="SVGID_6_" gradientUnits="userSpaceOnUse" x1="85.5726" y1="70.3965" x2="96.2186" y2="70.3965">
	<stop  offset="0" style="stop-color:#BBCEF8"/>
	<stop  offset="1" style="stop-color:#A5BEF7"/>
</linearGradient>
<circle class="st20" cx="90.9" cy="70.4" r="5.3"/>
<g>
	<path class="st21" d="M124.7,68.7H102c-0.2,0-0.3-0.1-0.3-0.3c0-0.2,0.1-0.3,0.3-0.3h22.7c0.2,0,0.3,0.1,0.3,0.3
		C125,68.6,124.9,68.7,124.7,68.7z"/>
	<path class="st21" d="M124.7,72.7H102c-0.2,0-0.3-0.1-0.3-0.3c0-0.2,0.1-0.3,0.3-0.3h22.7c0.2,0,0.3,0.1,0.3,0.3
		C125,72.6,124.9,72.7,124.7,72.7z"/>
</g>
<line class="st22" x1="145.6" y1="100.3" x2="162.8" y2="100.3"/>
<line class="st22" x1="145.6" y1="106.9" x2="174.2" y2="106.9"/>
<path class="st11" d="M144.4,71.5V90c0,1.4,1.1,2.6,2.6,2.6h25.9c1.4,0,2.6-1.1,2.6-2.6V71.5c0-1.4-1.1-2.6-2.6-2.6h-25.9
	C145.5,68.9,144.4,70.1,144.4,71.5z"/>
<path class="st23" d="M147.8,78.1c0,3.2,2.6,5.9,5.9,5.9c3.2,0,5.9-2.6,5.9-5.9c0-3.2-2.6-5.9-5.9-5.9
	C150.4,72.2,147.8,74.8,147.8,78.1z"/>
<path class="st6" d="M144.4,88.1V90c0,1.4,1.1,2.6,2.6,2.6h25.9c1.4,0,2.6-1.1,2.6-2.6v-1.9l-9.2-9.2l-6.3,6.3l-6.3-6.3L144.4,88.1z
	"/>
<path class="st24" d="M30.4,103.5l-0.4,0.1c-1.9,0.6-3.4,2.1-3.6,4l-1.2,17.2c7.1,2.6,15.2-1.9,15.2-1.9l-0.2-15.5
	c0-1.8-0.9-3.5-2.9-3.9l0,0L30.4,103.5z"/>
<polygon class="st25" points="39.9,128.1 41,132.4 27.9,133.2 28.3,127.7 "/>
<polygon class="st25" points="34.5,130.9 39.9,143.8 42,163.3 46.3,162 45.4,143.5 40.7,131.3 "/>
<polygon class="st26" points="35.3,132.7 38.1,132.5 36.3,135.2 "/>
<polygon class="st25" points="27.9,132.3 27,144.4 23.3,164.4 27.9,165.3 32.4,144.9 33.9,131 "/>
<path class="st24" d="M45.7,163.4l-2.5,0.3l0.4,3.6l7.2-0.8l0,0c-0.1-0.6-0.6-1-1.1-1l-3.7-0.4L45.7,163.4z"/>
<rect x="43.6" y="166.9" transform="matrix(-0.9936 0.1128 -0.1128 -0.9936 112.8906 327.939)" class="st11" width="7.2" height="0.6"/>
<path class="st24" d="M26.6,164.8l-2.5-0.3l-0.5,3.6l7.2,0.9l0,0c0-0.6-0.3-1.1-0.8-1.3l-3.4-1.3L26.6,164.8z"/>
<rect x="23.5" y="168.6" transform="matrix(-0.9913 -0.1313 0.1313 -0.9913 31.8071 339.7659)" class="st11" width="7.2" height="0.6"/>
<rect x="41.5" y="161.7" transform="matrix(0.9834 -0.1814 0.1814 0.9834 -28.7816 10.762)" class="st27" width="5.8" height="2"/>
<rect x="24.7" y="161.1" transform="matrix(0.1924 -0.9813 0.9813 0.1924 -140.1152 157.7061)" class="st27" width="2" height="5.8"/>
<polygon class="st3" points="31.6,105 35.3,104.9 35.3,96.9 31.6,97 "/>
<path class="st3" d="M36.2,102.6L36.2,102.6c2.5,0,4.6-2,4.6-4.5l0.1-5.6l-9.1-0.1l-0.1,5.6C31.6,100.6,33.7,102.6,36.2,102.6z"/>
<linearGradient id="SVGID_7_" gradientUnits="userSpaceOnUse" x1="30.7944" y1="92.5929" x2="42.0434" y2="92.5929">
	<stop  offset="0" style="stop-color:#2E353A"/>
	<stop  offset="1" style="stop-color:#000006"/>
</linearGradient>
<path class="st28" d="M31.7,96.6l1.3,0c0.4,0,0.6-0.3,0.6-0.7c-0.2-0.9-0.3-2.5,0.3-2.7c0.9-0.3,5.5,1,7.1-0.1
	c2.2-1.6,0.7-4.4-1.3-4.5c-2-0.2-1.7,2.2-4.1,2.1c-2.3-0.1-5.9-1.1-4.4,5.2L31.7,96.6z"/>
<linearGradient id="SVGID_8_" gradientUnits="userSpaceOnUse" x1="31.5325" y1="99.1218" x2="40.9102" y2="99.1218">
	<stop  offset="0" style="stop-color:#2E353A"/>
	<stop  offset="1" style="stop-color:#000006"/>
</linearGradient>
<path class="st29" d="M40.9,98.2c0,0-0.4,0-1.2-0.8c-0.8-0.7-2.8-0.8-4,0.3c-1.3,1.1-2.2-2.4-2.2-2.4l-0.7,1.1c0,0,0.3,1.7-1.3,1.7
	c0,0,0.3,5.1,5.4,4.6C37,102.8,40.6,102.2,40.9,98.2z"/>
<path class="st3" d="M30.1,96.8c0,0.8,0.6,1.4,1.4,1.4c0.8,0,1.4-0.6,1.4-1.4c0-0.8-0.6-1.4-1.4-1.4C30.8,95.4,30.1,96,30.1,96.8z"
	/>
<polygon class="st3" points="31.6,103.4 34.6,105.6 35.3,103.4 "/>
<polygon class="st30" points="34.6,105.6 31.6,106.7 31.6,103.4 "/>
<polygon class="st30" points="34.6,105.6 36.1,106.4 35.3,103.4 "/>
<g>
	<g>
		<path class="st11" d="M11.3,113.7v13.8c0,1.3,1,2.3,2.3,2.3H51c1.3,0,2.3-1,2.3-2.3v-13.8c0-1.3-1-2.3-2.3-2.3H13.6
			C12.3,111.3,11.3,112.4,11.3,113.7z"/>
	</g>
	<g>
		<path class="st23" d="M11.3,113.7v1.3h42v-1.3c0-1.3-1-2.3-2.3-2.3H13.6C12.3,111.3,11.3,112.4,11.3,113.7z"/>
		<g>
			<path class="st6" d="M50.8,113.3c0,0.3,0.2,0.5,0.5,0.5c0.3,0,0.5-0.2,0.5-0.5c0-0.3-0.2-0.5-0.5-0.5
				C51,112.8,50.8,113,50.8,113.3z"/>
			<path class="st6" d="M48.8,113.3c0,0.3,0.2,0.5,0.5,0.5c0.3,0,0.5-0.2,0.5-0.5c0-0.3-0.2-0.5-0.5-0.5
				C49.1,112.8,48.8,113,48.8,113.3z"/>
			<path class="st6" d="M46.9,113.3c0,0.3,0.2,0.5,0.5,0.5c0.3,0,0.5-0.2,0.5-0.5c0-0.3-0.2-0.5-0.5-0.5
				C47.1,112.8,46.9,113,46.9,113.3z"/>
		</g>
	</g>
	<path class="st6" d="M15,123.9h21.6c0.4,0,0.7-0.3,0.7-0.7v-5.4c0-0.4-0.3-0.7-0.7-0.7H15c-0.4,0-0.7,0.3-0.7,0.7v5.4
		C14.4,123.6,14.7,123.9,15,123.9z"/>
	<g>
		<path class="st6" d="M14.9,127h29.3c0.3,0,0.5-0.2,0.5-0.5l0,0c0-0.3-0.2-0.5-0.5-0.5H14.9c-0.3,0-0.5,0.2-0.5,0.5l0,0
			C14.4,126.8,14.6,127,14.9,127z"/>
	</g>
</g>
<g>
	<path class="st3" d="M27.2,127.4c-1.1,0.6-1.5,2-0.8,3.1c0.6,1.1,2,1.5,3.1,0.8c1.1-0.6,1.5-2,0.8-3.1
		C29.7,127.1,28.3,126.7,27.2,127.4z"/>
	<path class="st3" d="M25.5,126.7l1.2,2.1c0.3,0.5,1,0.7,1.6,0.4l0,0c0.5-0.3,0.7-1,0.4-1.6l-1.2-2.1c-0.3-0.5-1-0.7-1.6-0.4h0
		C25.3,125.4,25.1,126.1,25.5,126.7z"/>
</g>
<path class="st24" d="M25.3,128.2l3.8-1.9l-5.3-10.5l6.8-7.9c0.7-0.9,0.6-2.3-0.3-3l0,0c-0.9-0.7-2.3-0.6-3,0.3l-7.7,9
	c-0.5,0.7-0.6,1.6-0.3,2.3L25.3,128.2z"/>
<g>
	<path class="st6" d="M58,102l-0.3-1l-0.3,1c-0.3,0.8-1,1.5-1.9,1.9l0,0l0,0c0.9,0.4,1.6,1.1,1.9,1.9l0.3,1l0.3-1
		c0.3-0.8,1-1.5,1.9-1.9l0,0l0,0C59,103.5,58.3,102.8,58,102z"/>
	<path class="st6" d="M233,74.1l-0.6-1.6l-0.6,1.6c-0.5,1.4-1.6,2.5-3.1,3.2l0,0l0,0c1.5,0.7,2.7,1.8,3.1,3.2l0.6,1.6l0.6-1.6
		c0.5-1.4,1.6-2.5,3.1-3.2l0,0l0,0C234.6,76.6,233.5,75.4,233,74.1z"/>
</g>
<path class="st11" d="M127.2,114.1l-1.4-2.9c-0.2-0.4-0.6-0.6-1-0.6l-4.6,0.5c-0.7,0.1-1.4-0.3-1.6-1l-0.7-1.7
	c-0.3-0.7,0-1.6,0.7-1.9c0.5-0.3,1-0.5,1-0.6l0.3,0.5c-0.1,0-0.6,0.3-1,0.6c-0.4,0.2-0.6,0.8-0.4,1.2l0.7,1.7c0.2,0.4,0.6,0.7,1,0.6
	l4.6-0.5c0.7-0.1,1.3,0.3,1.6,0.9l1.4,2.9L127.2,114.1z"/>
<path class="st23" d="M127.3,101.3l-8.1,3.3c-0.5,0.2-0.7,0.8-0.5,1.3l0.6,1.4c0.2,0.5,0.7,0.7,1.2,0.5l8.2-3.1
	c0.5-0.2,0.8-0.8,0.5-1.3l-0.7-1.6C128.3,101.3,127.7,101.1,127.3,101.3z"/>
<path class="st18" d="M126.8,112.6L126.8,112.6c-0.4,0.2-0.6,0.7-0.5,1.1l1.7,5c0.3,0.8,1.2,1.2,2,0.8l0,0c0.7-0.4,0.9-1.2,0.5-1.9
	L128,113C127.8,112.6,127.3,112.4,126.8,112.6z"/>
<path class="st12" d="M100,148.9l-7.7-8.6c-0.6-0.8-0.7-1.9-0.2-2.7l7-10.1l4.2,2.5l-6.1,8.7l6.7,7.3L100,148.9z"/>
<g>
	<path class="st3" d="M127.1,118.2c0.9,0.8,2.3,0.7,3.2-0.2c0.8-0.9,0.7-2.3-0.2-3.2c-0.9-0.8-2.3-0.7-3.2,0.2
		C126.1,116,126.2,117.4,127.1,118.2z"/>
	<path class="st3" d="M127,120l1.5-1.8c0.4-0.5,0.3-1.2-0.1-1.6l0,0c-0.5-0.4-1.2-0.3-1.6,0.1l-1.5,1.8c-0.4,0.5-0.3,1.2,0.1,1.6
		l0,0C125.9,120.5,126.6,120.5,127,120z"/>
</g>
<polygon class="st3" points="103.5,126.5 107.4,126.5 107.2,119.1 103.3,119.1 "/>
<path class="st3" d="M106.4,123.7L106.4,123.7c2.4,0,4.3-2,4.3-4.4l-0.1-5.4l-8.7,0.1l0.1,5.4C102,121.8,104,123.7,106.4,123.7z"/>
<linearGradient id="SVGID_9_" gradientUnits="userSpaceOnUse" x1="103.483" y1="120.1613" x2="104.8892" y2="114.0363">
	<stop  offset="0" style="stop-color:#2E353A"/>
	<stop  offset="1" style="stop-color:#000006"/>
</linearGradient>
<path class="st31" d="M108,116.8l0,4c0,1.6-1.2,2.9-2.7,2.9l-0.8,0c-2.6,0-4.8-2.2-4.8-4.9l0-3.6l8.1-0.1L108,116.8z"/>
<linearGradient id="SVGID_10_" gradientUnits="userSpaceOnUse" x1="110.0815" y1="112.5602" x2="110.0815" y2="113.779">
	<stop  offset="0" style="stop-color:#2E353A"/>
	<stop  offset="1" style="stop-color:#000006"/>
</linearGradient>
<path class="st32" d="M107.6,116.3c0,0,2.1,0.1,3.3-0.2c1.6-0.3,2.2-3.5,0.9-4.5c-0.1,0-0.1-0.1-0.2-0.1c-1.5-1.1-3.5,1.2-3.4,1.3
	C108.2,113,107.6,116.3,107.6,116.3z"/>
<linearGradient id="SVGID_11_" gradientUnits="userSpaceOnUse" x1="99.7991" y1="114.3927" x2="109.6567" y2="114.3927">
	<stop  offset="0" style="stop-color:#2E353A"/>
	<stop  offset="1" style="stop-color:#000006"/>
</linearGradient>
<path class="st33" d="M109.7,113.6c0,0-3.5-3-7.4-1.1c0,0-1.3,0.3-2.5,2.7l7.7,1.8L109.7,113.6z"/>
<path class="st3" d="M106.7,118.9c0,0.7,0.6,1.3,1.3,1.3c0.7,0,1.3-0.6,1.3-1.3c0-0.7-0.6-1.3-1.3-1.3
	C107.3,117.6,106.7,118.2,106.7,118.9z"/>
<path class="st3" d="M110.1,119.4h0.6c0.3,0,0.6-0.3,0.6-0.6l0,0c0-0.3-0.3-0.6-0.6-0.6h-0.6V119.4z"/>
<path class="st34" d="M108.3,126.1h-6.2c-3.1,0-4.2,2.6-3.6,5.3l1.2,6.7l0.6,6.3h11.2l1.2-13.8C112.6,128.1,111.7,126.1,108.3,126.1
	z"/>
<path class="st25" d="M111.4,144.4l4.1,20.7l0.1,17.6l-2.9,0.1l-2.6-17.1l-5.4-14.8l0.3,15.1l-4.4,16.7h-3l2.3-16.7L98,153.2
	c0,0-0.5-5.7,2.1-8.8H111.4z"/>
<rect x="100.7" y="145.7" transform="matrix(-0.2034 0.9791 -0.9791 -0.2034 268.9851 76.5233)" class="st35" width="5.3" height="4"/>
<polygon class="st3" points="115.5,182.7 115.6,185.1 113,185.1 112.6,182.8 "/>
<polygon class="st3" points="100.5,182.8 100,185.4 97.2,185.3 97.6,182.8 "/>
<path class="st35" d="M104.5,152.8h-2.9c0,0,2.6,2.9,3.1,5.8L104.5,152.8z"/>
<path class="st12" d="M115.5,185.1h1.7c1,0,2.1,0.3,2.4,1.5l0.1,0.8h-7c0,0-0.5-1.3,0.2-2.3H115.5z"/>
<path class="st12" d="M99.7,185.1h1.7c1,0,2.1,0.3,2.4,1.5l0.1,0.8h-7c0,0-0.5-1.3,0.2-2.3H99.7z"/>
<path class="st12" d="M108.3,131l-0.4-4.9l10.4-0.9l6.5-7.6l3.7,3.2l-7.1,8.4c-0.4,0.5-1,0.8-1.7,0.9L108.3,131z"/>
<polygon class="st35" points="112.5,130.7 109.7,130.8 112,136.9 "/>
<path class="st8" d="M101.7,114.5c0,1-0.8,1.8-1.8,1.8c-1,0-1.8-0.8-1.8-1.8s0.8-1.8,1.8-1.8C100.9,112.7,101.7,113.5,101.7,114.5z"
	/>
<linearGradient id="SVGID_12_" gradientUnits="userSpaceOnUse" x1="94.8095" y1="122.8564" x2="104.7889" y2="122.8564">
	<stop  offset="0" style="stop-color:#2E353A"/>
	<stop  offset="1" style="stop-color:#000006"/>
</linearGradient>
<path class="st36" d="M100.5,113.7c0,0-3.9-2.5-5.4,2.7c-1.4,4.9,2.5,10.8,3.3,15.2c0.1,0.5,0.5,0.9,1.1,0.9h4.2
	c0.6,0,1.1-0.5,1.1-1.2c-0.1-2.1-1.2-6.1-4.4-11c0,0-3.4-4.6,0.1-5.2C100.5,115.2,101.2,114.3,100.5,113.7z"/>
<g>
	<path class="st18" d="M235.4,173.1c-0.4,0-0.7-0.2-0.8-0.6L208.9,68.6c-0.1-0.4,0.2-0.8,0.6-0.8c0.4-0.1,0.9,0.2,1,0.5l25.7,103.9
		c0.1,0.4-0.2,0.8-0.6,0.8C235.5,173.1,235.4,173.1,235.4,173.1z"/>
	<path class="st18" d="M216.5,173.1c-0.4,0-0.7-0.2-0.8-0.6L189.9,68.6c-0.1-0.4,0.2-0.8,0.6-0.8c0.4-0.1,0.9,0.2,1,0.5l25.8,103.9
		c0.1,0.4-0.2,0.8-0.6,0.8C216.7,173.1,216.6,173.1,216.5,173.1z"/>
	<path class="st18" d="M211,74.7h-18.9c-0.4,0-0.8-0.3-0.8-0.7s0.4-0.7,0.8-0.7H211c0.4,0,0.8,0.3,0.8,0.7S211.5,74.7,211,74.7z"/>
	<path class="st18" d="M213.1,83h-18.9c-0.4,0-0.8-0.3-0.8-0.7c0-0.4,0.4-0.7,0.8-0.7h18.9c0.4,0,0.8,0.3,0.8,0.7
		C213.9,82.7,213.5,83,213.1,83z"/>
	<path class="st18" d="M215.2,91.3h-18.9c-0.4,0-0.8-0.3-0.8-0.7s0.4-0.7,0.8-0.7h18.9c0.4,0,0.8,0.3,0.8,0.7S215.6,91.3,215.2,91.3
		z"/>
	<path class="st18" d="M217.2,99.6h-18.9c-0.4,0-0.8-0.3-0.8-0.7s0.4-0.7,0.8-0.7h18.9c0.4,0,0.8,0.3,0.8,0.7S217.7,99.6,217.2,99.6
		z"/>
	<path class="st18" d="M219.3,107.9h-18.9c-0.4,0-0.8-0.3-0.8-0.7c0-0.4,0.4-0.7,0.8-0.7h18.9c0.4,0,0.8,0.3,0.8,0.7
		C220.1,107.6,219.7,107.9,219.3,107.9z"/>
	<path class="st18" d="M221.3,116.3h-18.9c-0.4,0-0.8-0.3-0.8-0.7c0-0.4,0.4-0.7,0.8-0.7h18.9c0.4,0,0.8,0.3,0.8,0.7
		C222.2,115.9,221.8,116.3,221.3,116.3z"/>
	<path class="st18" d="M223.4,124.6h-18.9c-0.4,0-0.8-0.3-0.8-0.7c0-0.4,0.4-0.7,0.8-0.7h18.9c0.4,0,0.8,0.3,0.8,0.7
		C224.2,124.3,223.9,124.6,223.4,124.6z"/>
	<path class="st18" d="M225.5,132.9h-18.9c-0.4,0-0.8-0.3-0.8-0.7c0-0.4,0.4-0.7,0.8-0.7h18.9c0.4,0,0.8,0.3,0.8,0.7
		C226.3,132.6,225.9,132.9,225.5,132.9z"/>
	<path class="st18" d="M227.5,141.2h-18.9c-0.4,0-0.8-0.3-0.8-0.7c0-0.4,0.4-0.7,0.8-0.7h18.9c0.4,0,0.8,0.3,0.8,0.7
		C228.3,140.9,228,141.2,227.5,141.2z"/>
	<path class="st18" d="M229.6,149.5h-18.9c-0.4,0-0.8-0.3-0.8-0.7c0-0.4,0.4-0.7,0.8-0.7h18.9c0.4,0,0.8,0.3,0.8,0.7
		C230.4,149.2,230,149.5,229.6,149.5z"/>
	<path class="st18" d="M231.7,157.8h-18.9c-0.4,0-0.8-0.3-0.8-0.7c0-0.4,0.4-0.7,0.8-0.7h18.9c0.4,0,0.8,0.3,0.8,0.7
		C232.5,157.5,232.1,157.8,231.7,157.8z"/>
</g>
<path class="st9" d="M205.2,126.9l3.2-0.6l1.4,5.2l-9.1,0.6l-0.1-0.7c-0.1-0.7,0.3-1.4,1-1.7l4.3-0.8L205.2,126.9z"/>
<polygon class="st3" points="217.6,83.3 213.8,83.3 213.7,75 217.5,75 "/>
<path class="st3" d="M212.9,80.9L212.9,80.9c-2.6,0-4.7-2.1-4.7-4.7l-0.1-5.8l9.4-0.1l0.1,5.8C217.5,78.8,215.5,80.9,212.9,80.9z"/>
<linearGradient id="SVGID_13_" gradientUnits="userSpaceOnUse" x1="206.7551" y1="70.4877" x2="218.4107" y2="70.4877">
	<stop  offset="0" style="stop-color:#2E353A"/>
	<stop  offset="1" style="stop-color:#000006"/>
</linearGradient>
<path class="st37" d="M217.5,74.6l-1.3,0c-0.4,0-0.6-0.3-0.6-0.7c0.2-1,0.3-2.6-0.3-2.8c-0.9-0.3-5.7,1.1-7.3-0.1
	c-2.3-1.7-0.7-4.5,1.3-4.7c2.1-0.2,1.8,2.2,4.2,2.2c2.4-0.1,6.1-1.1,4.6,5.3L217.5,74.6z"/>
<path class="st3" d="M219.1,74.9c0,0.8-0.6,1.5-1.5,1.5c-0.8,0-1.5-0.6-1.5-1.5c0-0.8,0.6-1.5,1.5-1.5
	C218.4,73.4,219.1,74,219.1,74.9z"/>
<path class="st9" d="M224,136l3.2-0.4l1.6,5.5l-9.1,0.2l-0.1-0.7c0-0.7,0.4-1.4,1.1-1.6l4.1-0.6L224,136z"/>
<path class="st25" d="M209.9,102l-9.1,2.8c-1.6,0.3-2.6,1.9-2.2,3.5l5.7,19.3l5.5-0.6l-4.9-17.7l13.5-2.9c2-0.2,3.5-1.8,3.5-3.8V102
	H209.9z"/>
<polygon class="st25" points="219.7,104.3 221.8,117.8 227.9,136.7 223.2,137 216.4,118.3 212.4,104.3 "/>
<path class="st8" d="M213.5,82.4L213.5,82.4c-2.6,0-4.7,2.4-4.7,5.3l1.1,14.2l13.1,0.6l-1.1-15.2c0-2.7-1.9-4.9-4.4-4.9L213.5,82.4z
	"/>
<path class="st6" d="M209.3,77.3l3.4,0c0,0-0.1,1.4-2,1.3C209.3,78.5,209.3,77.3,209.3,77.3z"/>
<g>
	<path class="st3" d="M185.4,89c-1.1,1-2.8,1-3.9-0.1c-1-1.1-1-2.8,0.1-3.9c1.1-1,2.8-1,3.9,0.1C186.6,86.3,186.5,88,185.4,89z"/>
</g>
<polyline class="st38" points="214.5,86.5 201.8,92 184,87 "/>
<path class="st9" d="M206.4,86.1l3.1,6.5l5.6-3.1c1.5-0.8,2-2.8,1.1-4.2l0,0c-0.7-1.2-2.3-1.8-3.6-1.3L206.4,86.1z"/>
<g>
	<path class="st39" d="M208.8,76.2c-1,0-1.8-0.8-1.8-1.8c0-1,0.8-1.8,1.8-1.8c1,0,1.8,0.8,1.8,1.8C210.5,75.4,209.7,76.2,208.8,76.2
		z M208.8,73.1c-0.7,0-1.3,0.6-1.3,1.3c0,0.7,0.6,1.3,1.3,1.3c0.7,0,1.3-0.6,1.3-1.3C210.1,73.7,209.5,73.1,208.8,73.1z"/>
	<path class="st39" d="M212.6,76.2c-1,0-1.8-0.8-1.8-1.8c0-1,0.8-1.8,1.8-1.8c1,0,1.8,0.8,1.8,1.8C214.3,75.4,213.5,76.2,212.6,76.2
		z M212.6,73.1c-0.7,0-1.3,0.6-1.3,1.3c0,0.7,0.6,1.3,1.3,1.3c0.7,0,1.3-0.6,1.3-1.3C213.9,73.7,213.3,73.1,212.6,73.1z"/>
	<rect x="210.2" y="73.5" class="st39" width="0.9" height="0.5"/>
	<rect x="213.9" y="73.9" class="st39" width="1.5" height="0.5"/>
</g>
<path class="st3" d="M142.3,44.7c0,0-0.6-2-3.9-1.9c-3.3,0.2-4.4,2.3-3.3,3.6c1.1,1.3,3.9,0.4,5.7-1.8L142.3,44.7z"/>
<path class="st3" d="M165.2,44.7c0,0-0.6-2-3.9-1.9c-3.3,0.2-4.4,2.3-3.3,3.6c1.1,1.3,3.9,0.4,5.7-1.8L165.2,44.7z"/>
</svg>
